# xmcd CD database file
#
# Track frame offsets:
#	150
#	15267
#	40217
#	62737
#	76745
#	99247
#	115787
#	130457
#	154267
#	172162
#
# Disc length: 2647 seconds
#
# Revision: 0
# Processed by: cddbd v1.5.1PL0 Copyright (c) Steve Scherf et al.
# Submitted via: CDex 1.51
#
DISCID=750a550a
DTITLE=Johnny Turner - Bluesw With A Feeling
DYEAR=1995
DGENRE=Blues
TTITLE0=Checkin' On My Baby
TTITLE1=Hard Luck Blues
TTITLE2=Can't Hold Out Much Longer
TTITLE3=She's Mine All Mine
TTITLE4=Tennessee Woman Blues
TTITLE5=Tomorrow Night
TTITLE6=You're So Fine
TTITLE7=Last Night
TTITLE8=Don't Start Me To Talking
TTITLE9=You Don't Have To Go
EXTD=YEAR: 1995
EXTT0=
EXTT1=
EXTT2=
EXTT3=
EXTT4=
EXTT5=
EXTT6=
EXTT7=
EXTT8=
EXTT9=
PLAYORDER=
